<svg width="36" height="36" viewBox="0 0 36 36" fill="none" xmlns="http://www.w3.org/2000/svg">
<rect x="0.129883" y="0.0185547" width="35" height="35" rx="4" fill="#2A2A2A"/>
<g clip-path="url(#clip0_9_655)">
<g clip-path="url(#clip1_9_655)">
<g clip-path="url(#clip2_9_655)">
<path d="M16.3086 18.9862L12.3441 23.441H11.4003L15.9897 18.2826L16.2663 17.9718L16.0108 17.6433L11.0146 11.2188H14.4529L17.5525 15.2486L17.9208 15.7275L18.3224 15.2761L21.9318 11.2188H22.8742L18.6316 15.9872L18.3565 16.2964L18.6088 16.6244L23.852 23.441H20.5218L17.0768 19.0116L16.708 18.5375L16.3086 18.9862ZM20.5121 22.9054L20.6623 23.0985H20.9068H22.1707H23.186L22.567 22.2936L14.4087 11.686L14.2585 11.4908H14.0123H12.656H11.6337L12.2614 12.2978L20.5121 22.9054Z" fill="white" stroke="white"/>
</g>
</g>
</g>
<defs>
<clipPath id="clip0_9_655">
<rect width="16" height="14" fill="white" transform="translate(9.62988 10.5186)"/>
</clipPath>
<clipPath id="clip1_9_655">
<rect width="16" height="14" fill="white" transform="translate(9.62988 10.5186)"/>
</clipPath>
<clipPath id="clip2_9_655">
<rect width="16" height="14" fill="white" transform="translate(9.62988 10.5186)"/>
</clipPath>
</defs>
</svg>
