<svg width="36" height="36" viewBox="0 0 36 36" fill="none" xmlns="http://www.w3.org/2000/svg">
<rect x="0.129883" y="0.0185547" width="35" height="35" rx="4" fill="#2A2A2A"/>
<g clip-path="url(#clip0_9_629)">
<g clip-path="url(#clip1_9_629)">
<g clip-path="url(#clip2_9_629)">
<path d="M23.0317 14.1607L23.0384 14.1676C23.1442 14.2745 23.2482 14.4991 23.3266 14.7659C23.3624 14.8876 23.3877 14.9995 23.4039 15.0809C23.4119 15.1213 23.4176 15.1535 23.4211 15.1748L23.4249 15.198L23.425 15.1991L23.4256 15.2037L23.4295 15.2376C23.433 15.2677 23.4379 15.3124 23.4439 15.3696C23.456 15.484 23.472 15.6481 23.4881 15.8452C23.5204 16.2407 23.5523 16.7632 23.5523 17.2812V18.2868C23.5523 18.8061 23.5204 19.3286 23.4881 19.7238C23.472 19.9207 23.456 20.0846 23.444 20.1988C23.438 20.2558 23.433 20.3004 23.4295 20.3304L23.4256 20.3642L23.425 20.3689L23.4249 20.37L23.4211 20.3932C23.4176 20.4145 23.4119 20.4467 23.4039 20.4871C23.3877 20.5685 23.3624 20.6804 23.3266 20.8022C23.2482 21.0689 23.1442 21.2935 23.0384 21.4004L23.0317 21.4073C22.7105 21.7447 22.3817 21.7789 22.1054 21.8077C22.077 21.8107 22.0491 21.8136 22.0218 21.8167C21.1127 21.8813 19.9721 21.9152 19.0521 21.933C18.5913 21.9418 18.1879 21.9466 17.8999 21.9491C17.7558 21.9504 17.6407 21.9511 17.5617 21.9515L17.4712 21.9519L17.4479 21.952L17.4433 21.952H17.4421L17.436 21.9519L17.4073 21.9516L17.2969 21.9505C17.2012 21.9494 17.0632 21.9478 16.8942 21.9456C16.5562 21.9411 16.0948 21.9341 15.6005 21.9239C14.617 21.9037 13.531 21.8714 13.0148 21.8241C12.9301 21.8086 12.8463 21.7975 12.7635 21.7865C12.4386 21.7434 12.1291 21.7024 11.8481 21.4073L11.8425 21.4015C11.7374 21.2947 11.6338 21.0697 11.5556 20.8027C11.5199 20.6808 11.4947 20.5688 11.4786 20.4874C11.4705 20.4469 11.4648 20.4147 11.4613 20.3934L11.4576 20.3701L11.4574 20.369L11.4568 20.3643L11.4529 20.3304C11.4495 20.3003 11.4445 20.2556 11.4385 20.1985C11.4265 20.0841 11.4104 19.92 11.3943 19.7229C11.362 19.3273 11.3301 18.8048 11.3301 18.2868V17.2812C11.3301 16.7636 11.3626 16.2414 11.3955 15.846C11.4119 15.649 11.4283 15.4849 11.4405 15.3706C11.4467 15.3134 11.4517 15.2688 11.4552 15.2387L11.4592 15.2049L11.46 15.1989L11.4603 15.1966L11.464 15.1735C11.4675 15.1522 11.473 15.12 11.481 15.0797C11.497 14.9983 11.5219 14.8865 11.5574 14.7648C11.6351 14.4982 11.7386 14.2741 11.8439 14.1676L11.8507 14.1607C12.1719 13.8234 12.5007 13.7891 12.777 13.7604C12.8056 13.7574 12.8336 13.7545 12.8609 13.7513C13.7695 13.6855 14.9091 13.6522 15.8285 13.6354C16.2889 13.627 16.6918 13.6228 16.9796 13.6207C17.1234 13.6197 17.2384 13.6192 17.3174 13.6189L17.4078 13.6187L17.431 13.6187H17.4368H17.4382H17.4438H17.4456H17.4514L17.4746 13.6187L17.565 13.6189C17.6439 13.6192 17.7589 13.6197 17.9028 13.6207C18.1906 13.6228 18.5935 13.627 19.0539 13.6354C19.9733 13.6522 21.1129 13.6855 22.0215 13.7513C22.0488 13.7545 22.0768 13.7574 22.1054 13.7604C22.3817 13.7891 22.7105 13.8234 23.0317 14.1607ZM15.5751 19.5076V20.3314L16.3059 19.9512L19.8774 18.0928L20.7269 17.6508L19.8786 17.2064L16.3071 15.335L15.5751 14.9515V15.7779V19.5076Z" fill="white"/>
<path d="M17.4382 13.6187H17.4368H17.431L17.4078 13.6187L17.3174 13.6189C17.2384 13.6192 17.1234 13.6197 16.9796 13.6207C16.6918 13.6228 16.2889 13.627 15.8285 13.6354C14.9091 13.6522 13.7695 13.6855 12.8609 13.7513C12.8336 13.7545 12.8056 13.7574 12.777 13.7604C12.5007 13.7891 12.1719 13.8234 11.8507 14.1607L11.8439 14.1676C11.7386 14.2741 11.6351 14.4982 11.5574 14.7648C11.5219 14.8865 11.497 14.9983 11.481 15.0797C11.473 15.12 11.4675 15.1522 11.464 15.1735L11.4603 15.1966L11.46 15.1989L11.4592 15.2049L11.4552 15.2387C11.4517 15.2688 11.4467 15.3134 11.4405 15.3706C11.4283 15.4849 11.4119 15.649 11.3955 15.846C11.3626 16.2414 11.3301 16.7636 11.3301 17.2812V18.2868C11.3301 18.8048 11.362 19.3273 11.3943 19.7229C11.4104 19.92 11.4265 20.0841 11.4385 20.1985C11.4445 20.2556 11.4495 20.3003 11.4529 20.3304L11.4568 20.3643L11.4574 20.369L11.4576 20.3701L11.4613 20.3934C11.4648 20.4147 11.4705 20.4469 11.4786 20.4874C11.4947 20.5688 11.5199 20.6808 11.5556 20.8027C11.6338 21.0697 11.7374 21.2947 11.8425 21.4015L11.8481 21.4073C12.1291 21.7024 12.4386 21.7434 12.7635 21.7865C12.8463 21.7975 12.9301 21.8086 13.0148 21.8241C13.531 21.8714 14.617 21.9037 15.6005 21.9239C16.0948 21.9341 16.5562 21.9411 16.8942 21.9456C17.0632 21.9478 17.2012 21.9494 17.2969 21.9505L17.4073 21.9516L17.436 21.9519L17.4421 21.952H17.4433L17.4479 21.952L17.4712 21.9519L17.5617 21.9515C17.6407 21.9511 17.7558 21.9504 17.8999 21.9491C18.1879 21.9466 18.5913 21.9418 19.0521 21.933C19.9721 21.9152 21.1127 21.8813 22.0218 21.8167C22.0491 21.8136 22.077 21.8107 22.1054 21.8077C22.3817 21.7789 22.7105 21.7447 23.0317 21.4073L23.0384 21.4004C23.1442 21.2935 23.2482 21.0689 23.3266 20.8022C23.3624 20.6804 23.3877 20.5685 23.4039 20.4871C23.4119 20.4467 23.4176 20.4145 23.4211 20.3932L23.4249 20.37L23.425 20.3689L23.4256 20.3642L23.4295 20.3304C23.433 20.3004 23.438 20.2558 23.444 20.1988C23.456 20.0846 23.472 19.9207 23.4881 19.7238C23.5204 19.3286 23.5523 18.8061 23.5523 18.2868V17.2812C23.5523 16.7632 23.5204 16.2407 23.4881 15.8452C23.472 15.6481 23.456 15.484 23.4439 15.3696C23.4379 15.3124 23.433 15.2677 23.4295 15.2376L23.4256 15.2037L23.425 15.1991L23.4249 15.198L23.4211 15.1748C23.4176 15.1535 23.4119 15.1213 23.4039 15.0809C23.3877 14.9995 23.3624 14.8876 23.3266 14.7659C23.2482 14.4991 23.1442 14.2745 23.0384 14.1676L23.0317 14.1607C22.7105 13.8234 22.3817 13.7891 22.1054 13.7604C22.0768 13.7574 22.0488 13.7545 22.0215 13.7513C21.1129 13.6855 19.9733 13.6522 19.0539 13.6354C18.5935 13.627 18.1906 13.6228 17.9028 13.6207C17.7589 13.6197 17.6439 13.6192 17.565 13.6189L17.4746 13.6187L17.4514 13.6187H17.4456H17.4438M17.4382 13.6187L17.4386 13.1187M17.4382 13.6187H17.4438M17.4438 13.6187V13.1187M15.5751 19.5076V20.3314L16.3059 19.9512L19.8774 18.0928L20.7269 17.6508L19.8786 17.2064L16.3071 15.335L15.5751 14.9515V15.7779V19.5076Z" stroke="white"/>
</g>
</g>
</g>
<defs>
<clipPath id="clip0_9_629">
<rect width="14" height="10" fill="white" transform="translate(10.6299 12.5186)"/>
</clipPath>
<clipPath id="clip1_9_629">
<rect width="14" height="10" fill="white" transform="translate(10.6299 12.5186)"/>
</clipPath>
<clipPath id="clip2_9_629">
<rect width="14" height="10" fill="white" transform="translate(10.6299 12.5186)"/>
</clipPath>
</defs>
</svg>
