<svg width="36" height="36" viewBox="0 0 36 36" fill="none" xmlns="http://www.w3.org/2000/svg">
<rect x="0.129883" y="0.0185547" width="35" height="35" rx="4" fill="#2A2A2A"/>
<g clip-path="url(#clip0_9_681)">
<g clip-path="url(#clip1_9_681)">
<g clip-path="url(#clip2_9_681)">
<path d="M17.63 21.6853C17.63 19.1853 15.9634 17.5186 13.4634 17.5186" stroke="white" stroke-linecap="round" stroke-linejoin="round"/>
<path d="M21.7967 21.6854C21.7967 16.6854 18.4634 13.3521 13.4634 13.3521" stroke="white" stroke-linecap="round" stroke-linejoin="round"/>
<path d="M13.4629 21.6945L13.4723 21.6841" stroke="white" stroke-linecap="round" stroke-linejoin="round"/>
<path d="M25.1299 15.0186V20.0186C25.1299 22.78 22.8913 25.0186 20.1299 25.0186H15.1299C12.3685 25.0186 10.1299 22.78 10.1299 20.0186V15.0186C10.1299 12.2571 12.3685 10.0186 15.1299 10.0186H20.1299C22.8913 10.0186 25.1299 12.2571 25.1299 15.0186Z" stroke="white" stroke-linecap="round" stroke-linejoin="round"/>
</g>
</g>
</g>
<defs>
<clipPath id="clip0_9_681">
<rect width="17" height="17" fill="white" transform="translate(9.12988 9.01855)"/>
</clipPath>
<clipPath id="clip1_9_681">
<rect width="17" height="17" fill="white" transform="translate(9.12988 9.01855)"/>
</clipPath>
<clipPath id="clip2_9_681">
<rect width="17" height="17" fill="white" transform="translate(9.12988 9.01855)"/>
</clipPath>
</defs>
</svg>
