<svg width="36" height="36" viewBox="0 0 36 36" fill="none" xmlns="http://www.w3.org/2000/svg">
<rect x="0.129883" y="0.0185547" width="35" height="35" rx="4" fill="#2A2A2A"/>
<g clip-path="url(#clip0_9_668)">
<g clip-path="url(#clip1_9_668)">
<g clip-path="url(#clip2_9_668)">
<path d="M26.0049 17.6514C26.0049 16.6327 25.1745 15.806 24.1513 15.806C23.6471 15.806 23.2023 15.9979 22.8761 16.3227C21.6156 15.4221 19.8658 14.8315 17.9381 14.7577L18.7833 10.8158L21.5266 11.3916C21.5563 12.0855 22.1346 12.6465 22.8464 12.6465C23.573 12.6465 24.1661 12.056 24.1661 11.3325C24.1661 10.6091 23.573 10.0186 22.8464 10.0186C22.3274 10.0186 21.8825 10.3138 21.6749 10.7567L18.6054 10.1071C18.5164 10.0924 18.4274 10.1071 18.3533 10.1514C18.2792 10.1957 18.2347 10.2695 18.205 10.3581L17.2708 14.7577C15.2986 14.8168 13.534 15.3926 12.2587 16.3227C11.9325 16.0126 11.4728 15.806 10.9835 15.806C9.96029 15.806 9.12988 16.6327 9.12988 17.6514C9.12988 18.4044 9.57474 19.0392 10.2272 19.3345C10.1975 19.5117 10.1827 19.7036 10.1827 19.8955C10.1827 22.7302 13.4895 25.0186 17.5822 25.0186C21.6749 25.0186 24.9817 22.7302 24.9817 19.8955C24.9817 19.7036 24.9669 19.5264 24.9372 19.3493C25.5452 19.054 26.0049 18.4044 26.0049 17.6514ZM13.3264 18.9654C13.3264 18.242 13.9195 17.6514 14.6461 17.6514C15.3727 17.6514 15.9659 18.242 15.9659 18.9654C15.9659 19.6888 15.3727 20.2794 14.6461 20.2794C13.9195 20.2794 13.3264 19.6888 13.3264 18.9654ZM20.6962 22.4349C19.7917 23.3355 18.0716 23.3946 17.5674 23.3946C17.0632 23.3946 15.3283 23.3208 14.4385 22.4349C14.3051 22.3021 14.3051 22.0806 14.4385 21.9477C14.572 21.8149 14.7944 21.8149 14.9279 21.9477C15.4914 22.5088 16.7073 22.7154 17.5822 22.7154C18.4571 22.7154 19.6582 22.5088 20.2366 21.9477C20.37 21.8149 20.5924 21.8149 20.7259 21.9477C20.8297 22.0954 20.8297 22.3021 20.6962 22.4349ZM20.459 20.2794C19.7324 20.2794 19.1392 19.6888 19.1392 18.9654C19.1392 18.242 19.7324 17.6514 20.459 17.6514C21.1856 17.6514 21.7787 18.242 21.7787 18.9654C21.7787 19.6888 21.1856 20.2794 20.459 20.2794Z" fill="white"/>
</g>
</g>
</g>
<defs>
<clipPath id="clip0_9_668">
<rect width="17" height="15" fill="white" transform="translate(9.12988 10.0186)"/>
</clipPath>
<clipPath id="clip1_9_668">
<rect width="17" height="15" fill="white" transform="translate(9.12988 10.0186)"/>
</clipPath>
<clipPath id="clip2_9_668">
<rect width="17" height="15" fill="white" transform="translate(9.12988 10.0186)"/>
</clipPath>
</defs>
</svg>
