<svg width="36" height="36" viewBox="0 0 36 36" fill="none" xmlns="http://www.w3.org/2000/svg">
<rect x="0.129883" y="0.0185547" width="35" height="35" rx="4" fill="#2A2A2A"/>
<g clip-path="url(#clip0_9_642)">
<g clip-path="url(#clip1_9_642)">
<path d="M21.1393 13.3377C21.0812 13.3765 21.0359 13.4317 21.0093 13.4961C20.9825 13.5607 20.9755 13.6317 20.9892 13.7003L21.1393 13.3377ZM21.1393 13.3377C21.1974 13.2989 21.2656 13.2782 21.3355 13.2782C21.4291 13.2782 21.519 13.3154 21.5852 13.3816C21.6514 13.4479 21.6886 13.5377 21.6886 13.6313C21.6886 13.7011 21.6679 13.7694 21.6291 13.8275C21.5902 13.8856 21.5351 13.9309 21.4707 13.9576M21.1393 13.3377L21.4707 13.9576M21.4707 13.9576C21.4064 13.9842 21.3351 13.9913 21.2666 13.9777L21.4707 13.9576ZM17.541 14.2806C16.9189 14.2818 16.31 14.4674 15.7933 14.814C15.2765 15.1605 14.8741 15.6525 14.6369 16.2276C14.3996 16.8028 14.3382 17.4354 14.4603 18.0455C14.5824 18.6555 14.8826 19.2157 15.323 19.6552C15.7634 20.0947 16.3241 20.394 16.9344 20.5148C17.5447 20.6357 18.1772 20.5731 18.7519 20.3347C19.3266 20.0964 19.8178 19.693 20.1633 19.1756C20.5089 18.6581 20.6933 18.0499 20.6933 17.4277C20.6941 17.0139 20.6131 16.6029 20.4549 16.2204C20.2968 15.838 20.0644 15.4906 19.7715 15.1981M17.541 14.2806L19.7715 15.1981M17.541 14.2806C17.9549 14.279 18.365 14.3592 18.7478 14.5167C19.1306 14.6741 19.4785 14.9058 19.7715 15.1981M24.1059 14.5104L24.1061 14.5187L24.1066 14.5269C24.1483 15.2638 24.1485 15.4909 24.1485 17.4277C24.1485 18.3904 24.1378 18.9298 24.1273 19.3214C24.1249 19.4104 24.1225 19.4926 24.1202 19.5711C24.1124 19.8346 24.1059 20.0562 24.1058 20.3508C24.0927 20.8833 23.9928 21.41 23.81 21.9104C23.6571 22.3156 23.4166 22.6822 23.1057 22.9841L23.1 22.9896L23.0945 22.9954C22.7951 23.3053 22.4292 23.543 22.0245 23.6906L22.0189 23.6927C21.5195 23.8814 20.9915 23.9836 20.4578 23.9946L20.4488 23.9948L20.4399 23.9953C19.703 24.037 19.4759 24.0372 17.5391 24.0372C15.6023 24.0372 15.3752 24.037 14.6383 23.9953L14.6293 23.9948L14.6204 23.9946C14.0866 23.9836 13.5586 23.8814 13.0592 23.6926L13.0556 23.6913C12.6503 23.5417 12.2836 23.3035 11.9823 22.994L11.977 22.9885L11.9715 22.9832C11.6616 22.6838 11.4238 22.3179 11.2762 21.9131L11.2742 21.9076C11.0854 21.4082 10.9833 20.8802 10.9722 20.3465L10.9721 20.3375L10.9715 20.3286C10.9298 19.5917 10.9297 19.3645 10.9297 17.4277C10.9297 15.4909 10.9298 15.2638 10.9715 14.5269L10.9721 14.518L10.9722 14.509C10.9833 13.9753 11.0854 13.4473 11.2742 12.9479L11.2762 12.9424C11.4238 12.5376 11.6616 12.1717 11.9715 11.8723L11.977 11.867L11.9823 11.8615C12.2836 11.552 12.6503 11.3138 13.0555 11.1642L13.0592 11.1629C13.5586 10.9741 14.0866 10.872 14.6204 10.8609L14.6293 10.8607L14.6383 10.8602C15.3752 10.8185 15.6023 10.8184 17.5391 10.8184C19.4759 10.8184 19.703 10.8185 20.4399 10.8602L20.4488 10.8607L20.4578 10.8609C20.9915 10.872 21.5195 10.9741 22.0189 11.1629L22.0244 11.1649C22.4292 11.3125 22.7951 11.5502 23.0945 11.8601L23.1043 11.87C23.4145 12.1737 23.6553 12.5407 23.8104 12.9461C23.9936 13.4479 24.0934 13.9763 24.1059 14.5104ZM23.5538 21.7662C23.7268 21.2922 23.819 20.7917 23.826 20.2872C23.8618 19.57 23.8688 19.2907 23.8688 17.4277C23.8688 15.5663 23.8618 15.286 23.826 14.5701C23.8226 14.0555 23.7306 13.5452 23.5541 13.0618L23.5516 13.0549L23.5489 13.0481C23.4058 12.6892 23.1868 12.3655 22.9068 12.0993C22.6225 11.7938 22.2706 11.5589 21.8792 11.4137L21.8767 11.4128C21.4035 11.24 20.9047 11.1481 20.401 11.1409C19.6838 11.098 19.3973 11.098 17.5611 11.098H17.5391C16.5998 11.098 16.0621 11.1088 15.6689 11.1196C15.5737 11.1222 15.488 11.1248 15.408 11.1272C15.1552 11.1348 14.9584 11.1407 14.6953 11.1407L14.6914 11.1407C14.1742 11.1448 13.6614 11.2365 13.1748 11.4121L13.1597 11.4176L13.145 11.424C12.7886 11.5791 12.4695 11.8084 12.2089 12.0965C11.9186 12.3576 11.6898 12.6801 11.5394 13.0407L11.5358 13.0494L11.5325 13.0583C11.3521 13.5411 11.2573 14.0516 11.2522 14.5669C11.2094 15.2833 11.2094 15.5705 11.2094 17.4057V17.4277C11.2094 18.367 11.2201 18.9047 11.2309 19.2979C11.2335 19.3931 11.2361 19.4788 11.2385 19.5589C11.2461 19.8116 11.252 20.0085 11.252 20.2715V20.2794L11.2523 20.2872C11.2685 20.8062 11.3757 21.3182 11.5689 21.8C11.7042 22.1752 11.9229 22.5149 12.2086 22.7932C12.4764 23.0691 12.7977 23.2875 13.1529 23.4349L13.1686 23.4414L13.1846 23.4468C13.6767 23.6129 14.1936 23.6941 14.7129 23.6866C15.4248 23.729 15.7156 23.729 17.5455 23.729H17.5675C19.4305 23.729 19.7097 23.722 20.4269 23.6862C20.9314 23.6793 21.4311 23.5874 21.9051 23.4143L21.9103 23.4124C22.2839 23.2713 22.6226 23.0511 22.9031 22.7667C23.1926 22.4864 23.4149 22.1444 23.5538 21.7662ZM15.946 19.812C16.4175 20.127 16.9719 20.2952 17.5391 20.2952C17.9156 20.2952 18.2885 20.221 18.6364 20.0769C18.9843 19.9328 19.3004 19.7216 19.5666 19.4553C19.8329 19.1891 20.0441 18.873 20.1882 18.525C20.3323 18.1772 20.4065 17.8043 20.4065 17.4277C20.4065 16.8606 20.2383 16.3062 19.9233 15.8347C19.6082 15.3632 19.1603 14.9956 18.6364 14.7786C18.1124 14.5616 17.5359 14.5048 16.9797 14.6154C16.4234 14.7261 15.9125 14.9991 15.5115 15.4002C15.1105 15.8012 14.8374 16.3121 14.7267 16.8683C14.6161 17.4246 14.6729 18.0011 14.8899 18.525C15.1069 19.049 15.4745 19.4968 15.946 19.812Z" stroke="white"/>
</g>
</g>
<defs>
<clipPath id="clip0_9_642">
<rect width="16" height="16" fill="white" transform="translate(9.62988 9.51855)"/>
</clipPath>
<clipPath id="clip1_9_642">
<rect width="16" height="16" fill="white" transform="translate(9.62988 9.51855)"/>
</clipPath>
</defs>
</svg>
