<svg width="36" height="36" viewBox="0 0 36 36" fill="none" xmlns="http://www.w3.org/2000/svg">
<rect x="0.129883" y="0.0185547" width="35" height="35" rx="4" fill="#2A2A2A"/>
<g clip-path="url(#clip0_9_616)">
<g clip-path="url(#clip1_9_616)">
<g clip-path="url(#clip2_9_616)">
<path d="M18.5182 16.0289H22.0182L21.6293 17.5845H18.5182V24.5845H16.9627V17.5845H13.8516V16.0289H16.9627V14.5729C16.9627 13.1861 17.1073 12.6829 17.378 12.1758C17.6432 11.6748 18.053 11.265 18.554 10.9998C19.0611 10.7291 19.5643 10.5845 20.9511 10.5845C21.3571 10.5845 21.7133 10.6234 22.0182 10.7011V12.14H20.9511C19.9213 12.14 19.6079 12.2007 19.2882 12.3718C19.0518 12.4978 18.876 12.6736 18.75 12.91C18.5789 13.2297 18.5182 13.5431 18.5182 14.5729V16.0289Z" fill="white" stroke="white" stroke-width="0.8"/>
</g>
</g>
</g>
<defs>
<clipPath id="clip0_9_616">
<rect width="10" height="15" fill="white" transform="translate(12.6299 10.0186)"/>
</clipPath>
<clipPath id="clip1_9_616">
<rect width="10" height="15" fill="white" transform="translate(12.6299 10.0186)"/>
</clipPath>
<clipPath id="clip2_9_616">
<rect width="10" height="15" fill="white" transform="translate(12.6299 10.0186)"/>
</clipPath>
</defs>
</svg>
