<svg width="21" height="21" viewBox="0 0 21 21" fill="none" xmlns="http://www.w3.org/2000/svg">
<g clip-path="url(#clip0_9_223)">
<g clip-path="url(#clip1_9_223)">
<path fill-rule="evenodd" clip-rule="evenodd" d="M3.4082 3.77829C3.4082 4.60829 3.50986 5.43579 3.71153 6.24079L3.9732 7.28829C4.14403 7.97162 4.01903 8.69495 3.6282 9.28162L2.84653 10.4541C1.6532 12.2441 1.54153 14.5458 2.55736 16.4425L2.91486 17.1108C3.32736 17.8808 4.12986 18.3616 5.0032 18.3616H6.23986C7.16153 18.3616 7.99903 17.8275 8.38736 16.9916L8.69403 16.3316C9.55153 14.4875 9.3857 12.3291 8.2582 10.6375L7.35486 9.28162C6.96403 8.69579 6.83903 7.97162 7.00986 7.28829L7.32653 6.02329C7.49153 5.36245 7.5757 4.68329 7.5757 4.00245V3.77829C7.5757 2.62745 6.6432 1.69495 5.49236 1.69495C4.3407 1.69495 3.4082 2.62745 3.4082 3.77829Z" stroke="white" stroke-linecap="round" stroke-linejoin="round"/>
<path d="M4.00537 8.36169H6.9887" stroke="white" stroke-linecap="round" stroke-linejoin="round"/>
<path d="M15.329 10.6047C15.4465 10.7222 15.4465 10.9127 15.329 11.0301C15.2115 11.1476 15.021 11.1476 14.9036 11.0301C14.7861 10.9127 14.7861 10.7222 14.9036 10.6047C15.021 10.4872 15.2115 10.4872 15.329 10.6047Z" stroke="white" stroke-linecap="round" stroke-linejoin="round"/>
<path d="M12.351 11.0298C12.4685 11.1473 12.4685 11.3378 12.351 11.4553C12.2335 11.5727 12.043 11.5727 11.9255 11.4553C11.808 11.3378 11.808 11.1473 11.9255 11.0298C12.043 10.9123 12.2335 10.9123 12.351 11.0298Z" stroke="white" stroke-linecap="round" stroke-linejoin="round"/>
<path d="M14.9041 13.583C15.0216 13.7005 15.0216 13.891 14.9041 14.0085C14.7866 14.126 14.5961 14.126 14.4787 14.0085C14.3612 13.891 14.3612 13.7005 14.4787 13.583C14.5961 13.4656 14.7866 13.4656 14.9041 13.583Z" stroke="white" stroke-linecap="round" stroke-linejoin="round"/>
<path d="M8.1626 10.4933C9.05844 8.73499 10.8801 7.52832 12.9884 7.52832C15.9801 7.52832 18.4051 9.95332 18.4051 12.945C18.4051 15.9366 15.9801 18.3616 12.9884 18.3616C11.2518 18.3616 9.7101 17.5408 8.71844 16.27" stroke="white" stroke-linecap="round" stroke-linejoin="round"/>
</g>
</g>
<defs>
<clipPath id="clip0_9_223">
<rect width="20" height="20" fill="white" transform="translate(0.200195 0.0283203)"/>
</clipPath>
<clipPath id="clip1_9_223">
<rect width="20" height="20" fill="white" transform="translate(0.200195 0.0283203)"/>
</clipPath>
</defs>
</svg>
