<svg width="21" height="21" viewBox="0 0 21 21" fill="none" xmlns="http://www.w3.org/2000/svg">
<path d="M2.7002 12.945H4.36687" stroke="white" stroke-linecap="round" stroke-linejoin="round"/>
<path d="M2.7002 10.028L4.36672 10.0282" stroke="white" stroke-linecap="round" stroke-linejoin="round"/>
<path d="M2.70068 7.11163L4.36705 7.11167" stroke="white" stroke-linecap="round" stroke-linejoin="round"/>
<path d="M17.7004 7.11167L16.0337 7.11163" stroke="white" stroke-linecap="round" stroke-linejoin="round"/>
<path d="M17.7002 10.0287L16.0337 10.0284" stroke="white" stroke-linecap="round" stroke-linejoin="round"/>
<path d="M17.7001 12.945H16.0337" stroke="white" stroke-linecap="round" stroke-linejoin="round"/>
<path d="M7.28324 2.52832L7.2832 4.19499" stroke="white" stroke-linecap="round" stroke-linejoin="round"/>
<path d="M10.201 2.52844L10.2007 4.19496" stroke="white" stroke-linecap="round" stroke-linejoin="round"/>
<path d="M13.1168 2.52863L13.1167 4.19499" stroke="white" stroke-linecap="round" stroke-linejoin="round"/>
<path d="M13.1167 17.5283L13.1168 15.8616" stroke="white" stroke-linecap="round" stroke-linejoin="round"/>
<path d="M10.1997 17.5281L10.2 15.8616" stroke="white" stroke-linecap="round" stroke-linejoin="round"/>
<path d="M7.2832 17.528L7.28324 15.8616" stroke="white" stroke-linecap="round" stroke-linejoin="round"/>
<path fill-rule="evenodd" clip-rule="evenodd" d="M12.7 15.8616H7.70004C5.85909 15.8616 4.3667 14.3693 4.3667 12.5283V7.52834C4.3667 5.68739 5.85909 4.19501 7.70004 4.19501H12.7C14.541 4.19501 16.0334 5.68739 16.0334 7.52834V12.5283C16.0334 14.3693 14.541 15.8616 12.7 15.8616Z" stroke="white" stroke-linecap="round" stroke-linejoin="round"/>
<path d="M7.47656 11.1783H10.4302" stroke="white" stroke-linecap="round" stroke-linejoin="round"/>
<path d="M10.6834 11.945L9.44174 8.11163H8.47507L7.2334 11.945" stroke="white" stroke-linecap="round" stroke-linejoin="round"/>
<path d="M12.7915 11.945V8.11163" stroke="white" stroke-linecap="round" stroke-linejoin="round"/>
</svg>
