<svg width="154" height="28" viewBox="0 0 154 28" fill="none" xmlns="http://www.w3.org/2000/svg">
<g clip-path="url(#clip0_9_697)">
<g clip-path="url(#clip1_9_697)">
<g clip-path="url(#clip2_9_697)">
<path d="M139.58 4.13997C136.861 4.13997 134.569 5.0971 132.706 7.01135C130.843 8.92562 129.912 11.2448 129.912 13.9689C129.912 16.6931 130.843 19.0123 132.706 20.9265C134.569 22.804 136.861 23.7427 139.58 23.7427C142.3 23.7427 144.592 22.804 146.455 20.9265C148.318 19.0123 149.249 16.6931 149.249 13.9689C149.249 11.2448 148.318 8.92562 146.455 7.01135C144.592 5.0971 142.3 4.13997 139.58 4.13997ZM139.58 27.9393C135.482 27.9393 132.054 26.6141 129.297 23.9636C126.54 21.2762 125.161 17.9447 125.161 13.9689C125.161 9.99318 126.54 6.68004 129.297 4.02953C132.054 1.3422 135.482 -0.00146484 139.58 -0.00146484C143.679 -0.00146484 147.107 1.3422 149.864 4.02953C152.621 6.68004 154 9.99318 154 13.9689C154 17.9447 152.603 21.2578 149.808 23.9083C147.014 26.5957 143.604 27.9393 139.58 27.9393Z" fill="white"/>
<path d="M116.1 5.13802H100.675V0.996582H122.527V4.5306L106.599 23.6916V23.802H122.751V27.9987H100.172V24.4646L116.1 5.24845V5.13802Z" fill="white"/>
<path d="M86.7505 27.9987H81.6087L70.5986 0.996582H75.7963L84.1796 21.1515L92.6188 0.996582H97.7606L86.7505 27.9987Z" fill="white"/>
<path d="M63.5488 0.996582H68.1876V27.9987H63.5488V0.996582Z" fill="white"/>
<path d="M38 0.996582H42.6388V14.1387L44 12.7097L55.1579 0.996582H60.9703L50.0161 12.8134L61.138 27.9987H55.6609L46.6069 16.1818L44 12.7097L42.6388 14.1387V20.4337V27.9987H38V0.996582Z" fill="white"/>
<path d="M26 -0.00146484H2C0.89543 -0.00146484 0 0.893966 0 1.99854V25.9985C0 27.1031 0.89543 27.9985 2 27.9985H26C27.1046 27.9985 28 27.1031 28 25.9985V1.99854C28 0.893966 27.1046 -0.00146484 26 -0.00146484Z" fill="#F08F64"/>
<mask id="mask0_9_697" style="mask-type:alpha" maskUnits="userSpaceOnUse" x="0" y="-1" width="28" height="29">
<path d="M26 -0.00146484H2C0.89543 -0.00146484 0 0.893966 0 1.99854V25.9985C0 27.1031 0.89543 27.9985 2 27.9985H26C27.1046 27.9985 28 27.1031 28 25.9985V1.99854C28 0.893966 27.1046 -0.00146484 26 -0.00146484Z" fill="#D9D9D9"/>
</mask>
<g mask="url(#mask0_9_697)">
<path d="M8.24383 5.99854H4V31.1985H8.24383V24.1384V18.2635V5.99854Z" fill="black"/>
<path d="M25.0146 5.99854H19.697L10.0557 16.3232C9.72726 16.675 9.69596 17.2109 9.98125 17.5985L11.8741 20.1703L20.1572 31.1985H25.168L14.993 17.0267L25.0146 5.99854Z" fill="black"/>
</g>
</g>
</g>
</g>
<defs>
<clipPath id="clip0_9_697">
<rect width="154" height="28" fill="white" transform="translate(0 -0.00146484)"/>
</clipPath>
<clipPath id="clip1_9_697">
<rect width="154" height="28" fill="white" transform="translate(0 -0.00146484)"/>
</clipPath>
<clipPath id="clip2_9_697">
<rect width="154" height="28" fill="white" transform="translate(0 -0.00146484)"/>
</clipPath>
</defs>
</svg>
